<svg id="Layer_1" data-name="Layer 1" xmlns="http://www.w3.org/2000/svg" viewBox="0 0 280.8 147.2"><defs><style>.cls-1{fill:#fff;}</style></defs><title>aprilclog-logo-white</title><path class="cls-1" d="M28.7,75.8L0,147.2H4.7l9.1-22.9H48l9,22.9h4.7L33.5,75.8H28.7ZM15.2,120.5L31.1,80.1h0.2l15.3,40.4H15.2Z"/><path class="cls-1" d="M104.7,75.8H74.3v71.4h4.4V115.4h24.4c14.2,0,22.4-7.1,22.4-19.6C125.5,78.7,112.8,75.8,104.7,75.8Zm-0.9,35.8H78.7v-32h25.7c14.3,0,16.7,10.8,16.7,16.1C121.1,103.1,116.7,111.6,103.8,111.6Z"/><path class="cls-1" d="M178,112.7v-0.2c9.5-1.6,15.3-8.7,15.3-18.3,0-13.8-10.1-18.4-22.6-18.4H140.9v3.8h29.8c9.6,0,18.2,4.1,18.2,14.9,0,11.5-7.8,16.4-18.2,16.4H140.9v36.3h4.4V114.7h25.4c12.5,0,15.9,5.6,16.8,12.5s-0.8,15.1,1.9,20h4.9c-2.9-3.8-1.7-11.8-2.4-19.2S188.6,113.9,178,112.7Z"/><rect class="cls-1" x="211.4" y="75.8" width="4.4" height="71.4"/><polygon class="cls-1" points="240.3 143.4 240.3 75.8 235.9 75.8 235.9 147.2 280.8 147.2 280.8 143.4 240.3 143.4"/><path class="cls-1" d="M251.55,132.56a2.26,2.26,0,0,0-2.41-1.83c-2,0-2.91,1.69-2.91,3.48,0,2,.87,3.6,2.93,3.6a2.43,2.43,0,0,0,2.48-2.48h1.14a3.5,3.5,0,0,1-3.72,3.44c-2.67,0-4-2-4-4.48s1.42-4.53,4.07-4.53a3.29,3.29,0,0,1,3.54,2.79h-1.14Z"/><path class="cls-1" d="M255.1,130h1.14v7.63h4.55v1H255.1V130Z"/><path class="cls-1" d="M266.33,129.76c2.73,0,4.12,2.17,4.12,4.5s-1.38,4.5-4.12,4.5-4.12-2.17-4.12-4.5S263.59,129.76,266.33,129.76Zm0,8c2.09,0,3-1.81,3-3.54s-0.88-3.54-3-3.54-3,1.81-3,3.54S264.23,137.8,266.33,137.8Z"/><path class="cls-1" d="M279.17,137.49a3.37,3.37,0,0,1-2.76,1.28,4.12,4.12,0,0,1-4.09-4.33c0-2.5,1.37-4.67,4.09-4.67,1.88,0,3.37.84,3.7,2.85H279a2.33,2.33,0,0,0-2.55-1.89c-2.08,0-3,1.81-3,3.65s1,3.43,3,3.43a2.59,2.59,0,0,0,2.76-2.81h-2.75v-1h3.77v4.53h-0.72Z"/><path class="cls-1" d="M156.64,27.49l0.87-.35L135.39,0a35.46,35.46,0,0,0,2.09,22.66L150.17,31A41.82,41.82,0,0,1,156.64,27.49Z"/><path class="cls-1" d="M193.64,39.24a16.57,16.57,0,0,0-4.75-10c-3.63-3.55-7.94-4.24-11.5-4.75a39.29,39.29,0,0,0-19.88,2.65l-0.87.35A41.82,41.82,0,0,0,150.17,31l-12.68-8.35L103.06,0s0.83,33.21,34,44a53.64,53.64,0,0,0-5.91,10.77c-9.62,24.58,3.44,50.2,4.5,50,0.7-.13-4.24-11.29,0-24.51,4.36-13.6,14.25-24,29.5-25.5,12.13-1.19,20.25,2.75,26-5.25C194.11,45.35,193.68,39.69,193.64,39.24Zm-11.37,8.81a3.38,3.38,0,1,1,3.38-3.37A3.38,3.38,0,0,1,182.26,48.05Z"/><path class="cls-1" d="M195.56,44.33s-1,5.33-3.67,7.5c0,0,30.11,5.76,58.5,13.5C250.39,65.33,213.35,52.28,195.56,44.33Z"/><path class="cls-1" d="M127.74,48.2c-9.6,7.21-5.82,20.21-5.82,20.21A31,31,0,0,1,127.74,48.2Z"/><path class="cls-1" d="M124.9,43.91c-14.93,11-6.68,26.62-6.68,26.62C115.13,55.33,124.9,43.91,124.9,43.91Z"/></svg>