<svg xmlns="http://www.w3.org/2000/svg" xmlns:xlink="http://www.w3.org/1999/xlink" style="display:none">
    <symbol id="icon-antislip" viewBox="0 0 49.2 97.6">
        <g>
            <path fill-rule="evenodd" clip-rule="evenodd" d="M49.1,22.1c-0.2-7.6-2.5-13.1-6.8-16.3C34.8,0.2,27-1.4,19.9,1.2
                C9.1,5.1,2.7,17,1.1,24.1C-1,32.9-0.1,47.7,3.9,70.8v0c2.4,13.8,6.7,22.4,13,25.5c1.8,0.9,3.6,1.3,5.6,1.3c2.8,0,5.8-0.8,9-2.5
                c6-3.2,6.6-10,5.4-25.2C36,58.1,39.7,51.9,43,46.4c1.5-2.5,3-5,3.8-7.7C47.6,36.1,49.3,29.4,49.1,22.1z M43.5,37.7
                c-0.7,2.3-1.9,4.4-3.4,6.8c-3.4,5.6-7.6,12.6-6.6,25.6C34.5,85.3,33.8,90,29.8,92c-4.4,2.3-8.3,2.7-11.4,1.2
                c-5.1-2.5-9-10.5-11.1-23v0c-3.9-22.6-4.8-37-2.8-45.3c1.4-6.1,7.2-17,16.6-20.4c1.8-0.7,3.7-1,5.6-1c4.4,0,8.9,1.7,13.5,5.2
                C47.9,14.4,45.9,29.6,43.5,37.7z"/>
            <path fill-rule="evenodd" clip-rule="evenodd" d="M12.3,24.9h23C35.3,24.9,24.6,11.9,12.3,24.9z"/>
            <path fill-rule="evenodd" clip-rule="evenodd" d="M10.6,27.9c0,0-1.5,5-1.3,4.9l29.1,0.1l-1.4-5H10.6z"/>
            <polygon fill-rule="evenodd" clip-rule="evenodd" points="10.7,39.9 36.8,39.9 38.3,35 9.2,35 	"/>
            <path fill-rule="evenodd" clip-rule="evenodd" d="M35.1,42.9L12.2,43C24.2,54.8,35.1,42.9,35.1,42.9z"/>
        </g>
    </symbol>
    <symbol id="icon-anatomic" viewBox="0 0 105.8 67.7">
        <path d="M90.1,59.7c-4.6,0-9.8-1-14.4-1.9c-2-0.4-3.9-0.7-5.5-1c-10.4-1.5-25.2,0.4-29,2c-4.2,1.8-11.5-0.4-17.3-2.1
            c-1.1-0.3-2.1-0.6-3-0.9c-2.3-0.7-4.2-0.3-6.2,0.1c-2.3,0.5-4.7,0.9-7.5-0.2c-3.4-1.4-5.4-3.5-5.3-5.7c0-0.8,0.5-2.7,3.3-3.5
            c1.1-0.3,2.3-0.5,3.8-0.7c3.7-0.5,9.2-1.3,17.9-4.6c8.9-3.4,25.1-9.8,33.4-14c6.2-3.1,5.4-12.3,5.4-12.4l0-0.2V0.2h3.5v14.4
            c0.1,1.2,0.8,11.8-7.3,15.8c-8.5,4.2-24.8,10.7-33.7,14.1c-9.1,3.5-14.9,4.3-18.7,4.8c-1.4,0.2-2.5,0.3-3.3,0.6
            c-0.4,0.1-0.7,0.3-0.7,0.3c0.1,0.4,0.9,1.4,3.1,2.2c1.9,0.7,3.5,0.4,5.5,0c2.2-0.4,4.7-0.9,7.9-0.1c0.9,0.3,1.9,0.6,3,0.9
            c4.7,1.4,11.9,3.6,14.9,2.3c4.7-2,20-3.9,30.8-2.3c1.7,0.2,3.6,0.6,5.6,1c7.2,1.4,17,3.3,21.1,0c1.4-1.1,2.1-2.8,2.1-5.2
            c0.1-5.8-0.5-13.1-1.1-20.7C97.7,18.2,96.8,7.6,97.8,0l3.5,0.4c-0.9,7.3,0,17.7,0.8,27.8c0.6,7.8,1.2,15.1,1.1,21.1
            c-0.1,3.4-1.2,6-3.4,7.8C97.3,59,93.9,59.7,90.1,59.7z"/>
        <path d="M101.9,58.8c-0.3,1.5-1,2.7-2,3.5c-4.2,3.3-14.5,1.4-22,0c-2.1-0.4-4.1-0.8-5.9-1c-11.4-1.6-27.4,0.3-32.3,2.3
            c-3.1,1.3-10.6-0.9-15.5-2.3c-1.1-0.3-2.2-0.6-3.2-0.9c-3.3-0.9-6-0.4-8.3,0.1c-2.1,0.4-3.8,0.7-5.7,0c-1.5-0.6-2.4-1.2-2.8-1.6H0
            c0.3,2,2.3,3.8,5.6,5.1c3,1.1,5.5,0.7,7.9,0.2c2.1-0.4,4.1-0.8,6.5-0.1c0.9,0.3,2,0.6,3.1,0.9c6.1,1.8,13.8,3.9,18.2,2.1
            c3.9-1.6,19.4-3.6,30.2-2c1.7,0.2,3.6,0.6,5.7,1c4.8,0.9,10.2,1.9,15,1.9c4,0,7.6-0.7,10.1-2.6c2-1.5,3.1-3.7,3.5-6.4"/>
    </symbol>

    <symbol id="icon-shock-absorption" viewBox="0 0 90.6 84.5">
        <path d="M13.9,27.4c0.4,0.2,0.9,0.5,1.3,0.7c24.3,13.1,63.3,8.6,72.9,0.8c2.6-2.1,2.6-4,2.3-5.3c-1.1-3.8-8.2-6.4-21.8-7.7l-0.7,0
            c-8.5-0.5-28.4-1.5-49.3,5.7c-1.7,0.6-3.2,1.2-4.6,1.9C7,19.2,3.4,15.3,3.7,12.1C4,8.9,8.4,5.9,16.1,3.4c0.9-0.3,1.4-1.3,1.1-2.2
            C17,0.3,16-0.2,15.1,0.1C5.7,3.1,0.7,7,0.2,11.8c-0.4,4.4,3,8.8,10.3,13.6c-5.7,3.6-8.8,8.3-8.9,13.4c-0.1,5,2.9,9.8,8.2,13.6
            c-5.1,2.8-8.5,6.1-9.5,9.7c-0.9,3.4,0,8.4,9.2,13.2c11.8,6.1,26.4,9.3,41.3,9.3c11.7,0,23.6-2,34.3-5.9c0.9-0.3,1.4-1.3,1-2.3
            s-1.3-1.4-2.3-1c-23.3,8.7-52.5,7.4-72.7-3.2c-4-2.1-8.5-5.3-7.4-9.2c0.8-2.9,4.2-5.8,9.6-8.4c1.3,0.7,2.7,1.4,4.3,1.9
            c0.3,0.1,0.7,0.3,1.3,0.6c19.3,8.5,38.6,9.8,57.3,3.7c9.3-3,13.2-5.7,12.7-8.8c-0.4-3-4.6-4.9-14-6.4c-6.4-1-14.1-1.6-19.2-1.8
            c-16-0.6-31.7,2.2-42.4,6.9C8,47.3,5,43.1,5.1,38.8C5.2,34.5,8.4,30.5,13.9,27.4z M19.8,24.8c20.3-7,39.7-6,48-5.5l0.6,0
            c17.4,1.8,18.6,5.1,18.7,5.3c0.1,0.4-0.3,1-1.1,1.6c-7.9,6.4-43.7,12-68.1-0.6C18.5,25.3,19.2,25,19.8,24.8z M20.7,51.5
            c10.2-3.3,23-4.9,34.9-4.4c16.6,0.7,28.7,3.2,29.8,5.2c-0.1,0.3-1.3,2.1-10.3,5c-17.9,5.8-36.4,4.6-54.8-3.6
            c-0.6-0.3-1.1-0.5-1.5-0.6c-0.4-0.2-0.8-0.3-1.2-0.5C18.6,52.3,19.6,51.9,20.7,51.5z"/>
    </symbol>

    <symbol id="icon-washable" viewBox="0 0 102.6 70">
        <path d="M30.3,14.1c1.1,0.2,2.1,0.6,3,1.2c1.3,0.8,2.4,2,3.7,3.1c4.3,3.5,9.2,5.4,14.2,5.5c5,0.1,9.9-1.7,14.3-5.2
            c0.9-0.7,1.7-1.5,2.5-2.2c0.4-0.4,0.8-0.7,1.3-1c0.9-0.6,1.9-1,2.9-1.3c2.5-0.6,5,0,7.2,1.6c0.2-1,0.4-2,0.6-3
            c-2.3-1.6-4.9-2.2-7.4-1.8c-1.2,0.2-2.4,0.6-3.5,1.2c-1.4,0.8-2.2,1.6-3.4,2.7c-4.3,3.9-9.3,5.9-14.4,5.8
            c-5.1-0.1-10.1-2.2-14.3-6.1c-0.6-0.5-1.1-1-1.7-1.5c-0.5-0.4-1.1-0.8-1.7-1.1c-1.2-0.6-2.4-1-3.7-1.1c-2.5-0.3-5.1,0.5-7.3,2.2
            c0.2,1,0.4,2,0.6,3C25.4,14.4,27.9,13.6,30.3,14.1z M30.3,24.1c1.1,0.2,2.1,0.6,3,1.2c1.3,0.8,2.4,2,3.7,3.1
            c4.3,3.5,9.2,5.4,14.2,5.5c5,0.1,9.9-1.7,14.3-5.2c0.9-0.7,1.7-1.5,2.5-2.2c0.4-0.4,0.8-0.7,1.3-1c0.9-0.6,1.9-1,2.9-1.3
            c2.5-0.6,5,0,7.2,1.6c0.2-1,0.4-2,0.6-3c-2.3-1.6-4.9-2.2-7.4-1.8c-1.2,0.2-2.4,0.6-3.5,1.2c-1.4,0.8-2.2,1.6-3.4,2.7
            c-4.3,3.9-9.3,5.9-14.4,5.8c-5.1-0.1-10.1-2.2-14.3-6.1c-0.6-0.5-1.1-1-1.7-1.5c-0.5-0.4-1.1-0.8-1.7-1.1c-1.2-0.6-2.4-1-3.7-1.1
            c-2.5-0.3-5.1,0.5-7.3,2.2c0.2,1,0.4,2,0.6,3C25.4,24.4,27.9,23.6,30.3,24.1z M82.7,61.5L95.5,0h-3.3L80.1,58.2H23.4L11.3,0H8
            l12.8,61.5H82.7z M99.3,0L85.4,66.8H17.2L3.3,0H0l14.6,70H88l14.6-70H99.3z"/>
        <g>
            <path d="M48.7,43.1c0,5.8-2.8,8.3-8.8,9.5l-0.7-2.3c3.6-0.9,5.3-2,5.9-4.5c-0.7,0.8-1.6,1.4-2.9,1.4c-2.2,0-4-1.8-4-4.7
                c0-2.9,2.3-4.9,5.2-4.9C46.9,37.6,48.7,39.9,48.7,43.1z M45.3,43.6c0-2.6-0.5-3.6-1.9-3.6c-1.2,0-1.9,0.8-1.9,2.4
                c0,1.8,0.8,2.4,1.7,2.4C44,44.8,44.7,44.4,45.3,43.6z"/>
            <path d="M60.8,45c0,4.7-1.9,7.4-5.3,7.4c-3.5,0-5.3-2.7-5.3-7.4c0-4.7,1.9-7.4,5.3-7.4C58.9,37.6,60.8,40.2,60.8,45z M53.5,45
                c0,3.7,0.6,5,1.9,5c1.4,0,1.9-1.1,1.9-5c0-3.8-0.6-4.9-1.9-4.9C54.1,40.1,53.5,41.2,53.5,45z"/>
            <path d="M62.4,40.7c0-2.2,1.9-3.5,3.7-3.5c1.8,0,3.7,1.3,3.7,3.5c0,2.3-1.9,3.6-3.7,3.6C64.3,44.3,62.4,43,62.4,40.7z M67.5,40.7
                c0-1-0.6-1.6-1.4-1.6c-0.9,0-1.5,0.6-1.5,1.6c0,1,0.6,1.7,1.5,1.7C67,42.4,67.5,41.7,67.5,40.7z"/>
        </g>
    </symbol>

    <symbol id="icon-ultrasound" viewBox="0 0 99.1 66.6">
        <path d="M66.3,16.6c-5.2,0-10.7-1.1-16.3-4.1C22.3-2.2,3.3,9.6,3.1,9.8c-0.9,0.6-2.2,0.3-2.8-0.6
            C-0.3,8.2,0,6.9,0.9,6.3c0.9-0.6,21.2-13.3,51,2.6c21.3,11.3,43.3-8.2,43.6-8.4c0.8-0.8,2.1-0.7,2.9,0.1c0.8,0.8,0.7,2.1-0.1,2.9
            C97.5,4.2,83.5,16.6,66.3,16.6z"/>
        <path d="M66.3,33.2c-5.2,0-10.7-1.1-16.3-4.1C22.3,14.4,3.3,26.3,3.1,26.4c-0.9,0.6-2.2,0.3-2.8-0.6
            C-0.3,24.8,0,23.6,0.9,23c0.9-0.6,21.2-13.3,51,2.6c21.3,11.3,43.3-8.2,43.6-8.4c0.8-0.8,2.1-0.7,2.9,0.1c0.8,0.8,0.7,2.1-0.1,2.9
            C97.5,20.9,83.5,33.2,66.3,33.2z"/>
        <path d="M66.3,49.9c-5.2,0-10.7-1.1-16.3-4.1C22.3,31,3.3,42.9,3.1,43c-0.9,0.6-2.2,0.3-2.8-0.6
            c-0.6-0.9-0.3-2.2,0.6-2.8c0.9-0.6,21.2-13.3,51,2.6c21.3,11.3,43.3-8.2,43.6-8.4c0.8-0.8,2.1-0.7,2.9,0.1c0.8,0.8,0.7,2.1-0.1,2.9
            C97.5,37.5,83.5,49.9,66.3,49.9z"/>
        <path d="M66.5,66.6c-5.2,0-10.7-1.1-16.3-4.1C22.5,47.7,3.5,59.6,3.3,59.7c-0.9,0.6-2.2,0.3-2.8-0.6
            c-0.6-0.9-0.3-2.2,0.6-2.8c0.9-0.6,21.2-13.3,51,2.6c21.3,11.3,43.3-8.2,43.6-8.4c0.8-0.8,2.1-0.7,2.9,0.1c0.8,0.8,0.7,2.1-0.1,2.9
            C97.6,54.2,83.7,66.6,66.5,66.6z"/>
    </symbol>

    <symbol id="icon-breathable" viewBox="0 0 106.6 90.2">
        <path d="M106.6,49.5c0-3.7-5.7-6.1-15.2-6.2c-6.1,0.2-10.6-0.3-14.5-1c2.8-2.1,4.3-4.1,4.7-6.3c0.7-3.9-2.1-7.3-5.1-10.8
            c-1.7-2.1-3.6-4.3-4.8-6.7l-0.2-0.3C70.7,17,72.4,11.2,75,8l2.6,7.3l3.3-1.2L76.2,0.7L62.3,7.8l1.6,3.1L71.4,7
            c-2.7,4-4.8,10.3-2.6,13.2c1.4,2.7,3.4,5.1,5.2,7.1c2.5,3,4.7,5.7,4.3,7.9c-0.3,1.8-2.5,3.9-6.3,6c-4.5-0.9-8.7-1.4-14.3-0.1
            c-0.7,0.2-1.6,0.2-2.6,0.3c2-1.7,3.2-3.5,3.5-5.4c0.7-3.9-2.1-7.3-5.1-10.8c-1.7-2.1-3.6-4.3-4.8-6.7l-0.2-0.3
            c-0.9-1.1,0.9-7.2,3.6-10.3l2.6,7.4l3.3-1.2L53.3,0.7L39.4,7.8l1.6,3.1l7.4-3.8c-2.7,4-4.9,10.3-2.7,13.3c1.4,2.7,3.4,5.1,5.2,7.1
            c2.5,3,4.7,5.7,4.3,7.9c-0.3,1.8-2.3,3.7-5.9,5.8c-1-0.1-2-0.2-3-0.3c-4-0.4-8.7-0.8-13.8-0.8c1.7-1.6,2.7-3.2,3-4.9
            c0.7-3.9-2.1-7.3-5.1-10.8c-1.7-2.1-3.6-4.3-4.8-6.7l-0.2-0.3c-0.9-1,0.6-6.3,3-9.6l2.4,6.8l3.3-1.2L29.4,0L15.5,7.1l1.6,3.1
            l8.5-4.3c-2.8,3.9-5.3,10.6-3,13.7c1.4,2.7,3.4,5.1,5.2,7.1c2.5,3,4.7,5.7,4.3,7.9c-0.3,1.8-2.3,3.7-5.9,5.8
            c-5.1,0.4-10.4,1.3-15.8,3.2C2.8,46.4-0.3,48.7,0,51.6c0.3,2.2,2.4,4.9,16.7,6.6c1.4,0.2,3.3,0.2,5.5,0.2c1.2,0,2.5,0,4-0.1
            c1.2,3,2.5,5.6,3.7,7.8c3.7,7.1,5.5,10.7-2,17.8L27,75.6L23.5,76L25,90.2l15.1-3.7l-0.8-3.4l-7.5,1.8c7.5-8,4.8-13.4,1.2-20.4
            c-1-1.9-2-4-3-6.3c3.1-0.1,6.5-0.3,10.1-0.5c3.1-0.2,6.5-0.3,10-0.5c1.2,3.2,2.6,5.9,3.8,8.3c3.6,7,5.5,10.7-1.8,17.6l-0.8-7.7
            l-3.5,0.4l1.5,14.2l15.1-3.7L63.5,83L55.1,85c8.3-8.4,5.6-13.8,1.9-21c-1-2-2.2-4.3-3.2-6.8c6-0.2,12.5-0.4,19.2-0.5
            c1.2,3.4,2.7,6.1,3.9,8.6c3.7,7.3,5.6,10.9-2.5,18.2l-0.8-7.9L70,76l1.5,14.2l15.1-3.7l-0.8-3.4l-8,2c8.7-8.6,5.9-14.1,2.2-21.4
            c-1.1-2.1-2.2-4.4-3.3-7c1.6,0,3.2,0,4.8,0C97.1,56.9,106.6,54.2,106.6,49.5z M51.3,5.6l0.1,0.2L51.3,5.6L51.3,5.6z M39.9,54.3
            c-10.4,0.5-18.6,0.9-22.8,0.4C5.9,53.4,3.9,51.6,3.5,51.2c0.2-0.4,1.4-1.8,8-4.2c5.3-1.9,10.6-2.8,15.6-3.1l0,0c0,0,0,0,0.1,0
            c6.9-0.4,13.4,0.1,18.7,0.6c5.3,0.5,9.5,0.9,12.5,0.2c5.6-1.3,9.5-0.5,14.6,0.5c4.8,1,10.2,2,18.4,1.7c8.2,0.1,11.4,2,11.6,2.6
            c-0.2,0.8-4.9,3.9-21.7,3.7h0C66,53,51.5,53.7,39.9,54.3z"/>
    </symbol>

    <symbol id="icon-anti-static" viewBox="0 0 106.6 94.2">
        <path d="M91.4,48.1c-7.9,0.3-13.1-0.7-17.7-1.7c-2.1-0.4-4-0.8-6-1l3.2-5.4c2.9-4.9,4.8-8.1,3.2-11.2c-1.5-2.7-4.8-2.9-6.1-2.9
            L58,25.4L68.7,5.9l2.6-4.8l-5.4-0.4l-7-0.5L56.6,0l-1.1,2L41.2,28.4l0,0l0,0c-0.9,1.8-1,3.7-0.3,5.4c0.7,1.8,2.3,3.2,4.2,3.9
            l0.5,0.2l0.5,0l10.3,0.6l-2.8,4.9L52,46.2c-1.7-0.1-3.6-0.3-5.7-0.5c-9.6-0.9-22.7-2.1-35.9,2.7C2.8,51.1-0.3,53.5,0,56.3
            c0.3,2.2,2.4,4.9,16.7,6.6c1.4,0.2,3.3,0.2,5.5,0.2c4.6,0,10.7-0.3,17.8-0.6c2.6-0.1,5.4-0.3,8.3-0.4l-5.8,10.4l-11.5-0.2
            c-0.8,0.1-1.1,0.9-1,1.4l8.3,20c0.2,0.7,1.2,0.8,1.8,0L62,74.2c1.2-1,0.4-1.9-0.6-1.8l-11.3,0.2l6-10.8c7.9-0.3,16.4-0.5,25.3-0.4
            c15.7,0.2,25.1-2.5,25.2-7.1C106.7,50.6,100.9,48.2,91.4,48.1z M46.3,34.5c-1.8-0.6-3-2.4-1.9-4.4L58.6,3.7l7,0.5l-11,19.9
            c-3.2,5.4-2.6,4.1,2.2,4.7l10.9,0.6c5.1,0.2,3.9,2.5,0.1,8.8l-4.1,6.9l-7.3,0.1l4.3-7.4c1.1-1.8,1.1-2.4-0.6-2.5L46.3,34.5z
             M81.5,57.9L81.5,57.9C66,57.8,51.5,58.5,39.9,59c-10.4,0.5-18.6,0.9-22.8,0.4C5.9,58.1,3.9,56.3,3.5,55.9c0.2-0.4,1.4-1.8,8-4.2
            c12.5-4.5,25.2-3.3,34.4-2.5c5.3,0.5,9.5,0.9,12.5,0.2c5.6-1.3,9.5-0.5,14.6,0.5c4.8,1,10.2,2,18.4,1.7c8.2,0.1,11.4,2,11.6,2.6
            C102.9,55,98.2,58.1,81.5,57.9z"/>
    </symbol>

    <symbol id="icon-closed-heel" viewBox="0 0 108.5 55">
        <path d="M108.2,13.3l-0.1-0.9c-0.1-1-0.1-1.5-0.1-2c0-1-0.1-1.6-0.5-4.7c-0.3-2.1-1.3-3-2.1-3.5c-2-1.2-4.6-0.2-4.9-0.1
            c-0.1,0-5.2,2.1-12.6,4.7c-6,2.1-14.5-0.6-24.4-3.7C61.8,2.5,60,2,58.1,1.4c-6-1.8-10.2-1.9-12.6-0.1c-1.2,0.9-1.6,2-1.7,2.7
            C34.3,15.4,26,17.1,16.4,19c-2.1,0.4-4.4,0.9-6.7,1.5c-3.9,1-6.7,2.9-8.3,5.8c-3,5.5-0.5,12.7,0.3,15c1.4,4,6.7,7.7,7,7.9L9.8,50
            l0.7-1.2c0-0.1,0.1-0.1,0.1-0.1c0.6-0.1,2.5,1.3,4.1,3.2l0.8,0.9l0.9-0.7c0.5-0.4,1-0.5,1.4-0.5c0.9,0.1,1.8,1.1,2,1.4l0.2,0.3
            l3.7,1.7l0.5-1.3c0.1-0.2,0.3-0.6,0.5-0.7c0.5-0.1,1.6,0.6,2.2,1.1l0.4,0.4h3l0.4-0.5c0.6-0.7,1.1-1.1,1.6-1.1c0,0,0,0,0,0
            c0.8,0,1.6,0.8,1.9,1.1l0.4,0.5h3.6l0.4-0.6c0.4-0.7,1-1.2,1.6-1.3c1-0.2,2.2,0.5,2.6,0.8l0.3,0.3h3.4l0.4-0.6
            c0.5-0.8,1-1.2,1.6-1.3c0.9-0.2,2,0.4,2.3,0.7l0.3,0.3h3.4v-1.2c0-0.6,0.4-1.7,0.7-2.6l15-3.9l0.9,1.4l2.2,3.8h3.9l0.4-0.6
            c0.7-1.3,1.3-1.6,1.5-1.6c0.3,0,0.9,0.8,1.2,1.4l0.3,0.8h4.1l0.4-0.6c0.5-0.9,1-1.4,1.5-1.4c0.5,0,1.1,0.5,1.3,0.8l0.5,0.7l3.7-1
            l0.3-0.4c0.7-1.1,1.5-1.7,2.1-1.8c0.7-0.1,1.2,0.6,1.3,0.6c0,0,0,0,0,0l0.6,0.7l0.8-0.3c4.3-1.6,6.4-7.7,6.6-8.5
            c0.3-0.7,2.7-6.6,4.1-13.4C108.8,19,108.5,16,108.2,13.3z M47,3.3c1-0.7,3.6-1.6,10.4,0.5c1.9,0.6,3.7,1.1,5.4,1.7
            c10.3,3.2,19.2,6,26,3.7c7.4-2.6,12.6-4.8,12.7-4.8c0.3-0.1,1.8-0.6,2.7-0.1c0.2,0.1,0.6,0.3,0.8,1.2c-4.8,7-11.1,11.2-18.6,12.3
            C69.1,20.4,50.1,6.8,46.5,4C46.6,3.8,46.7,3.5,47,3.3z M90.3,46.5l-1.2,0.3c-0.6-0.5-1.6-1.2-2.8-1.1c-1.2,0.1-2.2,0.8-3.1,2h-1
            c-0.5-0.8-1.5-2.1-2.9-2.2c-1.2-0.1-2.4,0.6-3.4,2.2h-1.1l-1.5-2.6l-2-3l-17.9,4.6l-0.2,0.5c-0.1,0.3-0.7,1.6-1,2.9h-0.3
            c-0.7-0.4-2.2-1.2-3.9-0.9c-1.1,0.2-2.1,0.8-2.9,1.9h-1.2c-0.7-0.5-2.4-1.3-4.2-1c-0.8,0.2-1.9,0.6-2.8,1.8h-1
            c-0.6-0.6-1.8-1.6-3.4-1.6c-1.2,0-2.3,0.5-3.2,1.6h-0.8c-0.8-0.7-2.4-1.8-4.1-1.4c-0.5,0.1-1.1,0.4-1.6,1l-0.8-0.4
            c-0.5-0.6-1.7-1.9-3.5-2.2c-0.8-0.1-1.6,0-2.4,0.3c-1.3-1.4-3.6-3.5-5.6-3.3c-0.4,0-0.7,0.2-1,0.3c-1.7-1.3-4.4-3.8-5.2-6
            c-0.7-2.1-2.9-8.5-0.5-13c1.2-2.2,3.5-3.8,6.7-4.6c2.2-0.6,4.4-1,6.5-1.4c9.5-1.9,18.4-3.7,28.3-15.3c1.9,1.4,6.5,4.7,12.5,7.8
            c6.3,3.2,15.1,6.7,24.1,6.7c1.6,0,3.2-0.1,4.8-0.3c3.8-0.6,7.4-1.9,10.6-3.9c0.3,4.2,0.7,17.2-3,27.5c-0.1,0-0.1,0-0.2,0
            C92.7,44.1,91.4,44.9,90.3,46.5z"/>
    </symbol>

    <symbol id="icon-esd" viewBox="0 0 82.7 36.4">
        <g>
            <path d="M8.2,6.7V15h10.7v5.8H8.2v8.9h13.1v5.9H0V0.9h21.3l-0.9,5.9H8.2z"/>
            <path d="M49.5,4.5l-3.9,4.5C43.3,7,40.9,6,38.1,6c-2.9,0-4.7,1.2-4.7,3.4c0,2.2,1.3,3.1,6.7,4.8c6.6,2.1,10.3,4.8,10.3,11.2
                c0,6.5-5.1,11-13.8,11c-6,0-10.3-2.2-13.2-5l4.2-4.6c2.5,2.2,5.3,3.5,8.7,3.5c3.4,0,5.5-1.6,5.5-4.3c0-2.6-1.3-3.7-6.4-5.3
                C27.8,18.4,25,15.2,25,10c0-6.1,5.3-10,12.5-10C42.8,0,46.5,1.6,49.5,4.5z"/>
            <path d="M82.7,18c0,14-8.4,17.5-17.3,17.5H55V0.9h9.7C73.9,0.9,82.7,3.7,82.7,18z M63.2,29.6h2.7c5,0,8.3-2.4,8.3-11.6
                c0-9.3-3.6-11.2-8.4-11.2h-2.6V29.6z"/>
        </g>
    </symbol>

    <symbol id="icon-fuel-oil-resistant" viewBox="0 0 108.5 74.5">
        <g>
            <path d="M108.2,32.7l-0.1-0.9c-0.1-1-0.1-1.5-0.1-2c0-1-0.1-1.6-0.5-4.7c-0.3-2.1-1.3-3-2.1-3.5c-2-1.2-4.6-0.2-4.9-0.1
                c-0.1,0-5.2,2.1-12.6,4.7c-6,2.1-14.5-0.6-24.4-3.7c-1.8-0.6-3.6-1.1-5.4-1.7c-6-1.8-10.2-1.9-12.6-0.1c-1.2,0.9-1.6,2-1.7,2.7
                C34.3,34.9,26,36.5,16.4,38.5c-2.1,0.4-4.4,0.9-6.7,1.5c-3.9,1-6.7,2.9-8.3,5.8c-3,5.5-0.5,12.7,0.3,15c1.4,4,6.7,7.7,7,7.9
                l1.1,0.8l0.7-1.2c0-0.1,0.1-0.1,0.1-0.1c0.6-0.1,2.5,1.3,4.1,3.2l0.8,0.9l0.9-0.7c0.5-0.4,1-0.5,1.4-0.5c0.9,0.1,1.8,1.1,2,1.4
                l0.2,0.3l3.7,1.7l0.5-1.3c0.1-0.2,0.3-0.6,0.5-0.7c0.5-0.1,1.6,0.6,2.2,1.1l0.4,0.4h3l0.4-0.5c0.6-0.7,1.1-1.1,1.6-1.1c0,0,0,0,0,0
                c0.8,0,1.6,0.8,1.9,1.1l0.4,0.5h3.6l0.4-0.6c0.4-0.7,1-1.2,1.6-1.3c1-0.2,2.2,0.5,2.6,0.8l0.3,0.3h3.4l0.4-0.6
                c0.5-0.8,1-1.2,1.6-1.3c0.9-0.2,2,0.4,2.3,0.7l0.3,0.3h3.4v-1.2c0-0.6,0.4-1.7,0.7-2.6l15-3.9l0.9,1.4l2.2,3.8h3.9l0.4-0.6
                c0.7-1.3,1.3-1.6,1.5-1.6c0.3,0,0.9,0.8,1.2,1.4l0.3,0.8h4.1l0.4-0.6c0.5-0.9,1-1.4,1.5-1.4c0.5,0,1.1,0.5,1.3,0.8l0.5,0.7l3.7-1
                l0.3-0.4c0.7-1.1,1.5-1.7,2.1-1.8c0.7-0.1,1.2,0.6,1.3,0.6c0,0,0,0,0,0l0.6,0.7l0.8-0.3c4.3-1.6,6.4-7.7,6.6-8.5
                c0.3-0.7,2.7-6.6,4.1-13.4C108.8,38.5,108.5,35.4,108.2,32.7z M47,22.7c1-0.7,3.6-1.6,10.4,0.5c1.9,0.6,3.7,1.1,5.4,1.7
                c10.3,3.2,19.2,6,26,3.7c7.4-2.6,12.6-4.8,12.7-4.8c0.3-0.1,1.8-0.6,2.7-0.1c0.2,0.1,0.6,0.3,0.8,1.2c-4.8,7-11.1,11.2-18.6,12.3
                c-17.2,2.6-36.2-11.1-39.9-13.9C46.6,23.2,46.7,23,47,22.7z M105.1,44.5c-1.3,6.9-3.9,12.9-3.9,13l0,0.1c-0.4,1.4-2,5.2-4.5,6.6
                c-0.6-0.4-1.5-0.9-2.6-0.8c-1.4,0.1-2.7,0.9-3.8,2.5l-1.2,0.3c-0.6-0.5-1.6-1.2-2.8-1.1c-1.2,0.1-2.2,0.8-3.1,2h-1
                c-0.5-0.8-1.5-2.1-2.9-2.2c-1.2-0.1-2.4,0.6-3.4,2.2h-1.1l-1.5-2.6l-2-3l-17.9,4.6l-0.2,0.5c-0.1,0.3-0.7,1.6-1,2.9h-0.3
                c-0.7-0.4-2.2-1.2-3.9-0.9c-1.1,0.2-2.1,0.8-2.9,1.9h-1.2c-0.7-0.5-2.4-1.3-4.2-1c-0.8,0.2-1.9,0.6-2.8,1.8h-1
                c-0.6-0.6-1.8-1.6-3.4-1.6c-1.2,0-2.3,0.5-3.2,1.6h-0.8c-0.8-0.7-2.4-1.8-4.1-1.4c-0.5,0.1-1.1,0.4-1.6,1l-0.8-0.4
                c-0.5-0.6-1.7-1.9-3.5-2.2c-0.8-0.1-1.6,0-2.4,0.3c-1.3-1.4-3.6-3.5-5.6-3.3c-0.4,0-0.7,0.2-1,0.3c-1.7-1.3-4.4-3.8-5.2-6
                c-0.7-2.1-2.9-8.5-0.5-13c1.2-2.2,3.5-3.8,6.7-4.6c2.2-0.6,4.4-1,6.5-1.4c9.5-1.9,18.4-3.7,28.3-15.3c1.9,1.4,6.5,4.7,12.5,7.8
                c6.3,3.2,15.1,6.7,24.1,6.7c1.6,0,3.2-0.1,4.8-0.3c7.4-1.1,13.7-4.9,18.7-11.2c0.1,0.5,0.1,0.9,0.1,1.3c0,0.5,0.1,1.1,0.1,2.1
                l0.1,1C106,35.6,106.3,38.3,105.1,44.5z"/>
            <polygon points="15.9,30.2 16.7,31.3 17.3,31.8 18.3,32.4 19.3,32.8 20.3,32.9 21.2,32.9 22,32.8 22.8,32.6 23.6,32.2 24.3,31.8
                24.8,31.3 25.2,30.8 25.6,30.3 25.9,29.7 26.3,29 26.5,28.2 26.5,27.3 26.5,26.6 26.2,25.3 26,24.6 25.5,23.5 25.1,22.6 24.5,21.5
                23.6,20 22.5,18.4 21.5,16.1 20.4,12.9 20.3,13.6 20.1,14.5 20,15.4 19.7,16.2 19.5,17.1 19.2,17.8 18.9,18.7 18.5,19.5 18,20.4
                17.4,21.3 16.8,22 16.3,22.9 15.8,24 15.4,25 15,26.4 15,27.8 15.3,29.2 	"/>
            <polygon points="30.2,16.4 30.7,17.1 31.4,17.9 32.3,18.7 33.2,19.1 34,19.3 34.8,19.5 35.6,19.5 36.5,19.4 37.3,19.2 37.9,18.9
                38.5,18.5 39,18.1 39.5,17.7 40,17.1 40.5,16.4 40.8,15.5 41,14.9 41.1,13.6 41.1,12.8 41,11.7 40.9,10.6 40.6,9.4 40.2,7.7
                39.7,5.8 39.4,3.4 39.4,0 39,0.6 38.6,1.5 38.2,2.2 37.7,3 37.2,3.7 36.8,4.3 36.1,5.1 35.5,5.7 34.8,6.4 33.9,7 33.2,7.6
                32.4,8.3 31.6,9.1 30.9,10 30.1,11.2 29.7,12.6 29.6,14 29.7,15.1 	"/>
            <polygon points="1.7,17.1 2.4,18.3 3.2,19.2 4.2,19.9 5,20.3 6.1,20.6 7.2,20.7 8.2,20.5 9.1,20.3 9.8,19.9 10.5,19.5 11.2,18.9
                11.7,18.3 12,17.7 12.3,17 12.5,16.5 12.7,15.8 12.8,15 12.7,14.2 12.6,13.3 12.3,12.7 11.7,11.6 11.3,10.9 10.6,10 9.9,9.2 9,8.3
                7.7,7.2 6.2,5.9 4.6,4.1 2.6,1.3 2.7,2 2.8,2.9 2.9,3.7 2.9,4.6 2.9,5.6 2.9,6.3 2.8,7.3 2.6,8.1 2.4,9.1 2.1,10.1 1.8,11
                1.5,12.1 1.3,13.2 1.3,14.3 1.3,15.7 	"/>
        </g>
    </symbol>

    <symbol id="icon-anti-bacterial" viewBox="0 0 112 97.6">
        <path d="M77.3,65.1c-0.1,2.9-2.4,5.1-4.4,6.9c-2.6,2.5-5.4,3.5-8.9,3.9c-2.4,0.3-2.4,4,0,3.8c7.5-0.9,16.9-6.1,17.1-14.6
            C81.1,62.7,77.4,62.7,77.3,65.1L77.3,65.1z"/>
        <path d="M84.9,39.8c0.3-0.3,0.7-0.5,1.2-0.5c0.4,0,0.7,0.3,0.9,0.6c2,3.6,3.1,7.7,4,11.2l0,0.1
            c1.9-0.3,3.7-0.9,5-1.6c0.7-0.4,1.4-0.1,1.7,0.4c0.4,0.5,0.4,1.1,0,1.6c-0.1,0.1-0.2,0.2-0.4,0.3c-1.7,0.9-3.6,1.5-5.9,1.8
            c0.4,2.2,0.7,4.7-0.1,7.2c-0.1,0.2-0.2,0.3-0.3,0.5c-0.5,0.5-1.3,0.6-1.8,0.3c-0.5-0.3-0.7-0.8-0.5-1.4c0.7-2.2,0.5-4.5,0.1-6.4
            c-0.2,0-0.3,0-0.5,0c-3,0.1-6.2,0-8.7-1.4c-0.4-0.2-0.6-0.5-0.7-0.9c-0.1-0.4,0.1-0.9,0.3-1.2l0,0c0.4-0.4,1-0.5,1.5-0.3
            c1.8,1,4.4,1.4,7.4,1.3l-0.1-0.4c-0.8-3.3-1.8-6.7-3.5-9.7C84.5,40.9,84.5,40.3,84.9,39.8z"/>
        <path d="M69.5,12.1c-2.1-0.8-4.3-1.5-6.6-1.9c1.4-0.7,2.2-1.9,3.9-2.9c1.4-0.8,0.1-2.9-1.3-2.2c-2.6,1.5-4,3.7-7.5,2.8
            c-3.1-0.8-4.7-3.5-7.4-5c-4.3-2.5-8.9-3.5-13.6-1.4c-0.3,0.1-0.5,0.3-0.8,0.4c-1.6-1.2-3.5-1.8-5.7-1.9c-2.5-0.1-5.2,1-7,2.6
            c-1.8,1.5-7.3,12.3-9.6,7.8c-0.7-1.4-2.9-0.2-2.2,1.3c0.8,1.6,2.7,1.9,4.3,2.1c2.8,0.3,3.5-0.9,4.9-3.3C23.6,6.1,27.3,0.9,33,3
            c0.6,0.2,1.1,0.5,1.5,0.7c-3,3.7-5.1,10.7-2.7,13.7C23.7,23.8,18.1,33.3,17,44.3C10.8,45.5,5.5,50,5.1,56.7C5,59,5.6,61.2,6.6,63.2
            c-1.5,1.4-2.7,2.9-3.5,4.3c-1.1,2-1.7,5.1-1.4,7.3c0.2,1.5,1.1,2.8,1.8,4.1c1.5,3,2,4.6-1.4,7.7c-0.3,0.3-1.5,1.1-1.7,1.3
            c-1.3,1,0.5,2.8,1.8,1.8c2.2-1.7,4.6-2.5,5.2-5.5c0.7-3.4-1.9-5.8-2.8-8.8c-1.1-3.4,0.6-6.9,3.4-9.8c0,0,0,0.1,0.1,0.1
            c1.1,1.5,2.3,2.9,3.5,4.3c1.5,1.8,4.2,4.5,0.4,5.5c-1.6,0.4-0.9,2.8,0.7,2.4c4.6-1.2,5.4-3.9,2.5-7.6c-1.7-2.2-3.7-4.2-5.3-6.5
            c2.6-2.2,5.8-3.9,8.5-4.8c2.8,9.4,9,17.3,17.2,22.2c7.8,10,20,16.5,33.7,16.5c23.6,0,42.8-19.2,42.8-42.8
            C112,31.4,93,12.2,69.5,12.1z M53.9,8.7c0.4,0.3,0.8,0.5,1.2,0.7c-5.5,0.1-10.8,1.3-15.5,3.4c-0.5-2.9,0.6-6.3-1.3-9
            c1.1-0.5,2.2-0.9,3.5-1C46.8,2.4,50.2,6.1,53.9,8.7z M35.3,6.5c0.3-0.4,0.6-0.8,0.9-1.1c1.4,2.4,0.5,5.7,1.1,8.6
            c-1.1,0.6-2.2,1.2-3.2,1.9C32.2,14,34.3,7.8,35.3,6.5z M8.6,61.5C8.3,61,8.1,60.5,8,60c-1.8-6.4,3-11.7,8.9-13.1c0,0.4,0,0.8,0,1.2
            c0,2.9,0.3,5.7,0.9,8.5C14.8,57.5,11.4,59.3,8.6,61.5z M69.2,94.6c-12.6,0-23.8-5.9-31.1-15c-5.4-6.8-8.6-15.4-8.6-24.8
            c0-10.3,3.9-19.7,10.3-26.8c7.3-7.9,17.7-12.9,29.3-12.9c21.9,0,39.8,17.8,39.8,39.8C109,76.8,91.2,94.6,69.2,94.6z"/>
        <path d="M61.7,38.8c-0.1-0.1-2.6-2.2-5.9-2.2c-1.6,0-3.1,0.5-4.5,1.5C50.9,38,50.4,38,49.7,38c-7.5,0-9.5,7.2-10,10.3
            c-0.6,4-0.1,7,1.7,9.1c2.2,2.6,4.9,2.8,6,2.7c1.1-0.1,6.7-1.4,7.8-11.7c0.8-8.1,4.7-8.7,5.9-8.7c0.1,0,0.2,0,0.2,0l1.8,0.2
            L61.7,38.8z M52.9,48c-0.9,9-5.2,9.7-5.9,9.8c-0.5,0-2.7-0.1-4.1-1.7c-1.4-1.6-1.8-4.1-1.3-7.7c1-7.1,5-8.4,7.5-8.5
            c-1.8,2.4-2.9,5.7-3,9.8c0,0.9,0.1,1.9,0.9,2l0,0l0.1,0c1,0,1.1-1.5,1.1-1.9c0.2-4.4,1.4-7.7,3.6-9.7c0.4-0.4,0.9-0.7,1.4-1
            c0.8-0.4,1.6-0.6,2.4-0.6c0.5,0,0.9,0.1,1.4,0.2C55.3,40,53.4,42.7,52.9,48z"/>
    </symbol>

    <symbol id="icon-recyclable" viewBox="0 0 79.5 96.5">
        <path d="M39.7,45.9l-9.3-8.4L14.5,23.3l0.8-0.9L39.5,0c0.2,3.8,0.1,8.3,0.1,12.2l0.2,0.1
            c14.3-0.9,28.1,6.8,35.1,19.6c6.1,10.7,6.1,26.3-0.2,37c0-13.4-7.6-26-20-31.6c-4.6-2-10-3.2-15-2.8L39.7,45.9L39.7,45.9z"/>
        <path d="M39.8,50.7l25,22.7l0.2,0.2l-0.5,0.6L40,96.5h0l-0.1-12c-14.8,0.8-28.6-6.8-35.5-20
            c-5.8-10.7-5.8-25.9,0.4-36.4c-0.2,13.4,8,26,20.2,31.5c4.6,1.9,9.7,3,14.7,2.9l0.1-0.2L39.8,50.7L39.8,50.7z"/>
    </symbol>

    <symbol id="icon-aprilclog" viewBox="0 0 108.5 55">
        <g>
            <path d="M108.2,12.4c-0.1-1-0.1-1.5-0.1-2c0-0.9-0.1-1.5-0.4-4c-5.3,6.7-12.1,10.8-20.1,12.1c-2.1,0.4-4.2,0.5-6.3,0.5
                c-9.3,0-18.5-3.1-25.1-6.1C49.6,10,44.7,6.9,42.5,5.4c-9,10.1-17,11.8-26.2,13.6c-2.1,0.4-4.4,0.9-6.7,1.5c-3.9,1-6.7,2.9-8.3,5.8
                c-3,5.5-0.5,12.7,0.3,15c1.4,4,6.7,7.7,7,7.9L9.8,50l0.7-1.2c0-0.1,0.1-0.1,0.1-0.1c0.6-0.1,2.5,1.3,4.1,3.2l0.8,0.9l0.9-0.7
                c0.5-0.4,1-0.5,1.4-0.5c0.9,0.1,1.8,1.1,2,1.4l0.2,0.3l3.7,1.7l0.5-1.3c0.1-0.2,0.3-0.6,0.5-0.7c0.5-0.1,1.6,0.6,2.2,1.1l0.4,0.4h3
                l0.4-0.5c0.6-0.7,1.1-1.1,1.6-1.1c0,0,0,0,0,0c0.8,0,1.6,0.8,1.9,1.1l0.4,0.5h3.6l0.4-0.6c0.4-0.7,1-1.2,1.6-1.3
                c1-0.2,2.2,0.5,2.6,0.8l0.3,0.3h3.4l0.4-0.6c0.5-0.8,1-1.2,1.6-1.3c0.9-0.2,2,0.4,2.3,0.7l0.3,0.3h3.4v-1.2c0-0.6,0.4-1.7,0.7-2.6
                l15-3.9l0.9,1.4l2.2,3.8h3.9l0.4-0.6c0.7-1.3,1.3-1.6,1.5-1.6c0.3,0,0.9,0.8,1.2,1.4l0.3,0.8h4.1l0.4-0.6c0.5-0.9,1-1.4,1.5-1.4
                c0.5,0,1.1,0.5,1.3,0.8l0.5,0.7l3.7-1l0.3-0.4c0.7-1.1,1.5-1.7,2.1-1.8c0.7-0.1,1.2,0.6,1.3,0.6c0,0,0,0,0,0l0.6,0.7l0.8-0.3
                c4.3-1.6,6.4-7.7,6.6-8.5c0.3-0.7,2.7-6.6,4.1-13.4c1.3-6.5,1-9.6,0.7-12.3L108.2,12.4z"/>
            <path d="M87.1,16c8-1.4,14.6-5.6,19.7-12.6c-0.4-0.6-0.9-1-1.3-1.3c-2-1.2-4.6-0.2-4.9-0.1c-0.1,0-5.2,2.1-12.6,4.7
                c-6,2.1-14.5-0.6-24.4-3.7C61.8,2.5,60,2,58.1,1.4c-6-1.8-10.2-1.9-12.6-0.1C44.6,2,44.2,2.8,44,3.4C48.9,6.7,69.1,19.1,87.1,16z"/>
        </g>
    </symbol>

    <symbol id="icon-autoclave" viewBox="0 0 85 76.7">
        <g>
            <polygon points="17.9,5.8 17.9,22 22.7,22 22.7,1.1 18.4,1.1 11.3,5.3 13.4,8.6 	"/>
            <path d="M32.1,18.8c-1.6,0-2.9-0.6-4.2-2l-2.7,2.6c1.6,2,4,3.2,7.2,3.2c5.2,0,8-2.9,8-6.4c0-3.3-2.2-4.9-4.8-5.1
                c2.6-0.7,4.1-2.4,4.1-5c0-2.9-2.5-5.3-7-5.3c-2.8,0-5.1,1-7.1,2.8L28,6.1c1.2-1.2,2.5-1.8,4.1-1.8c1.7,0,2.8,0.9,2.8,2.4
                c0,1.7-1.1,2.7-3,2.7h-1.2l-0.5,3.4h1.7c2.2,0,3.4,0.8,3.4,3C35.3,17.7,34,18.8,32.1,18.8z"/>
            <polygon points="51.1,22 55.9,22 55.9,17.5 58.3,17.5 58.3,13.8 55.9,13.8 55.9,8.9 51.7,8.9 51.2,13.8 47.3,13.8 52.4,2.1
                48.2,0.5 42.3,14.2 42.3,17.5 51.1,17.5 	"/>
            <path d="M64.7,10.6c2.7,0,5.5-2,5.5-5.3c0-3.3-2.8-5.2-5.5-5.2s-5.5,1.9-5.5,5.2C59.2,8.6,62,10.6,64.7,10.6z M64.7,2.8
                c1.3,0,2.1,0.9,2.1,2.4S66,7.7,64.7,7.7c-1.3,0-2.2-1-2.2-2.4S63.4,2.8,64.7,2.8z"/>
            <path d="M2.7,42.2c0.2-0.1,16.5-10.3,40.3,2.4c4.8,2.5,9.5,3.5,14,3.5c14.8,0,26.8-10.7,27.4-11.2c0.7-0.6,0.8-1.8,0.1-2.5
                c-0.6-0.7-1.8-0.8-2.5-0.1c-0.2,0.2-19.2,17-37.4,7.2C19.1,27.9,1.5,38.8,0.8,39.3c-0.8,0.5-1,1.6-0.5,2.4
                C0.8,42.5,1.9,42.7,2.7,42.2z"/>
            <path d="M82.1,48.6c-0.2,0.2-19.2,17-37.4,7.2C19.1,42.1,1.5,53.1,0.8,53.6c-0.8,0.5-1,1.6-0.5,2.4c0.5,0.8,1.6,1,2.4,0.5
                c0.2-0.1,16.5-10.3,40.3,2.4c4.8,2.5,9.5,3.5,14,3.5c14.8,0,26.8-10.7,27.4-11.2c0.7-0.6,0.8-1.8,0.1-2.5
                C83.9,48,82.8,47.9,82.1,48.6z"/>
            <path d="M82.1,62.9c-0.2,0.2-19.2,17-37.4,7.2C19.1,56.4,1.5,67.4,0.8,67.9c-0.8,0.5-1,1.6-0.5,2.4c0.5,0.8,1.6,1,2.4,0.5
                c0.2-0.1,16.5-10.3,40.3,2.4c4.8,2.5,9.5,3.5,14,3.5c14.8,0,26.8-10.7,27.4-11.2c0.7-0.6,0.8-1.8,0.1-2.5
                C83.9,62.3,82.8,62.2,82.1,62.9z"/>
        </g>
    </symbol>

    <symbol id="icon-dispenser" viewBox="0 0 94 86">
        <g>
            <path d="M0,0v86h94V0H0z M44,81H6V46h38V81z M44,40H6V5h38V40z M88,81H51V46h37V81z M88,40H51V5h37V40z"/>
            <path d="M56.8,29.3l0.3,0.2l0.2-0.3c0,0,0,0,0,0c0.2,0,0.7,0.4,1.2,0.9l0.2,0.3l0.3-0.2c0.1-0.1,0.3-0.2,0.4-0.1
                c0.3,0,0.5,0.3,0.6,0.4l0.1,0.1l1,0.5l0.1-0.4c0-0.1,0.1-0.2,0.1-0.2c0.2,0,0.5,0.2,0.6,0.4L62,31h0.8l0.1-0.4
                c0.2-0.2,0.3-0.6,0.5-0.6c0,0,0,0,0,0c0.2,0,0.5,0.5,0.5,0.6l0.1,0.4h1l0.1-0.2c0.1-0.2,0.3-0.4,0.4-0.4c0.3-0.1,0.6,0.3,0.7,0.4
                l0.1,0.2h1l0.1-0.4c0.1-0.2,0.3-0.4,0.5-0.5c0.3,0,0.6-0.1,0.7,0l0.1-0.1H70v0c0-0.2,0-0.5,0.1-0.7l4.2-1.1l0.2,0.6L75,30h1.1
                l0.1-0.4c0.2-0.4,0.4-0.5,0.4-0.5c0.1,0,0.3,0.4,0.3,0.5l0.1,0.4h1.1l0.1-0.4c0.1-0.2,0.3-0.5,0.4-0.5c0.1,0,0.3,0.1,0.4,0.2
                l0.1,0.2l1-0.3l0.1-0.1c0.2-0.3,0.4-0.5,0.6-0.5c0.2,0,0.4,0.2,0.4,0.2l0.2,0.2l0.2-0.1c1.2-0.5,1.8-2.2,1.9-2.4
                c0.1-0.2,0.8-1.9,1.1-3.8c0.4-1.8,0.3-2.7,0.2-3.5l0-0.3c0-0.3,0-0.4,0-0.6c0-0.3,0-0.4-0.1-1.1c-1.5,1.9-3.4,3-5.7,3.4
                c-0.6,0.1-1.2,0.1-1.8,0.1c-2.6,0-5.2-0.9-7.1-1.7c-1.8-0.8-3.2-1.7-3.8-2.1c-2.5,2.9-4.8,3.3-7.4,3.8c-0.6,0.1-1.2,0.2-1.9,0.4
                c-1.1,0.3-1.9,0.8-2.3,1.6c-0.8,1.6-0.1,3.6,0.1,4.3C55.2,28.2,56.7,29.3,56.8,29.3z"/>
            <path d="M78.9,20c2.3-0.4,4.1-1.6,5.6-3.6c-0.1-0.2-0.3-0.3-0.4-0.4c-0.6-0.3-1.3-0.1-1.4,0c0,0-1.5,0.6-3.6,1.3
                c-1.7,0.6-4.1-0.2-6.9-1c-0.5-0.2-1-0.3-1.5-0.5c-1.7-0.5-2.9-0.5-3.6,0c-0.3,0.2-0.4,0.4-0.4,0.6C68.1,17.3,73.8,20.8,78.9,20z"/>
            <path d="M56.8,70.6l0.3,0.2l0.2-0.3c0,0,0,0,0,0c0.2,0,0.7,0.4,1.2,0.9l0.2,0.3l0.3-0.2c0.1-0.1,0.3-0.2,0.4-0.1
                c0.3,0,0.5,0.3,0.6,0.4l0.1,0.1l1,0.5l0.1-0.4c0-0.1,0.1-0.2,0.1-0.2c0.2,0,0.5,0.1,0.6,0.3l0.1,0h0.8l0.1,0.1
                c0.2-0.2,0.3-0.1,0.5-0.1c0,0,0,0,0,0c0.2,0,0.5,0,0.5,0.1l0.1-0.1h1l0.1-0.1c0.1-0.2,0.3-0.3,0.4-0.3c0.3-0.1,0.6,0.2,0.7,0.3
                l0.1,0.2h1l0.1-0.2c0.1-0.2,0.3-0.4,0.5-0.4c0.3,0,0.6,0.3,0.7,0.4l0.1,0.3H70v-0.8c0-0.2,0-0.5,0.1-0.7l4.2-1.1l0.2,0.5L75,71h1.1
                l0.1-0.2c0.2-0.4,0.4-0.5,0.4-0.5c0.1,0,0.3,0.3,0.3,0.4l0.1,0.3h1.1l0.1-0.2c0.1-0.2,0.3-0.4,0.4-0.4c0.1,0,0.3,0.1,0.4,0.2
                l0.1,0.2l1-0.3l0.1-0.1c0.2-0.3,0.4-0.5,0.6-0.5c0.2,0,0.4,0.2,0.4,0.2l0.2,0.2l0.2-0.1c1.2-0.5,1.8-2.2,1.9-2.4
                c0.1-0.2,0.8-1.9,1.1-3.8c0.4-1.8,0.3-2.7,0.2-3.5l0-0.3c0-0.3,0-0.4,0-0.6c0-0.3,0-0.4-0.1-1.1c-1.5,1.9-3.4,3-5.7,3.4
                c-0.6,0.1-1.2,0.1-1.8,0.1c-2.6,0-5.2-0.9-7.1-1.7c-1.8-0.8-3.2-1.7-3.8-2.1c-2.5,2.9-4.8,3.3-7.4,3.8c-0.6,0.1-1.2,0.2-1.9,0.4
                c-1.1,0.3-1.9,0.8-2.3,1.6c-0.8,1.6-0.1,3.6,0.1,4.3C55.2,69.5,56.7,70.6,56.8,70.6z"/>
            <path d="M78.9,61.2c2.3-0.4,4.1-1.6,5.6-3.6c-0.1-0.2-0.3-0.3-0.4-0.4c-0.6-0.3-1.3-0.1-1.4,0c0,0-1.5,0.6-3.6,1.3
                c-1.7,0.6-4.1-0.2-6.9-1c-0.5-0.2-1-0.3-1.5-0.5c-1.7-0.5-2.9-0.5-3.6,0c-0.3,0.2-0.4,0.4-0.4,0.6C68.1,58.6,73.8,62.1,78.9,61.2z"
                />
            <path d="M11.9,29.3l0.3,0.2l0.2-0.3c0,0,0,0,0,0c0.2,0,0.7,0.4,1.2,0.9l0.2,0.3l0.3-0.2c0.1-0.1,0.3-0.2,0.4-0.1
                c0.3,0,0.5,0.3,0.6,0.4l0.1,0.1l1,0.5l0.1-0.4c0-0.1,0.1-0.2,0.1-0.2c0.2,0,0.5,0.2,0.6,0.4l0.1,0.2H18l0.1-0.4
                c0.2-0.2,0.3-0.6,0.5-0.6c0,0,0,0,0,0c0.2,0,0.5,0.5,0.5,0.6l0.1,0.4h1l0.1-0.2c0.1-0.2,0.3-0.4,0.4-0.4c0.3-0.1,0.6,0.3,0.7,0.4
                l0.1,0.2h1l0.1-0.4c0.1-0.2,0.3-0.4,0.5-0.5c0.3,0,0.6-0.1,0.7,0l0.1-0.1H25v0c0-0.2,0-0.5,0.1-0.7l4.2-1.1l0.2,0.6l0.6,1.3h1.1
                l0.1-0.4c0.2-0.4,0.4-0.5,0.4-0.5c0.1,0,0.3,0.4,0.3,0.5l0.1,0.4h1.1l0.1-0.4c0.1-0.2,0.3-0.5,0.4-0.5c0.1,0,0.3,0.1,0.4,0.2
                l0.1,0.2l1-0.3l0.1-0.1c0.2-0.3,0.4-0.5,0.6-0.5c0.2,0,0.4,0.2,0.4,0.2l0.2,0.2l0.2-0.1c1.2-0.5,1.8-2.2,1.9-2.4
                c0.1-0.2,0.8-1.9,1.1-3.8c0.4-1.8,0.3-2.7,0.2-3.5l0-0.3c0-0.3,0-0.4,0-0.6c0-0.3,0-0.4-0.1-1.1c-1.5,1.9-3.4,3-5.7,3.4
                c-0.6,0.1-1.2,0.1-1.8,0.1c-2.6,0-5.2-0.9-7.1-1.7c-1.8-0.8-3.2-1.7-3.8-2.1c-2.5,2.9-4.8,3.3-7.4,3.8c-0.6,0.1-1.2,0.2-1.9,0.4
                c-1.1,0.3-1.9,0.8-2.3,1.6C9,24.4,9.7,26.5,10,27.1C10.3,28.2,11.9,29.3,11.9,29.3z"/>
            <path d="M34.1,20c2.3-0.4,4.1-1.6,5.6-3.6c-0.1-0.2-0.3-0.3-0.4-0.4c-0.6-0.3-1.3-0.1-1.4,0c0,0-1.5,0.6-3.6,1.3
                c-1.7,0.6-4.1-0.2-6.9-1c-0.5-0.2-1-0.3-1.5-0.5c-1.7-0.5-2.9-0.5-3.6,0c-0.3,0.2-0.4,0.4-0.4,0.6C23.3,17.3,29,20.8,34.1,20z"/>
            <path d="M11.9,70.6l0.3,0.2l0.2-0.3c0,0,0,0,0,0c0.2,0,0.7,0.4,1.2,0.9l0.2,0.3l0.3-0.2c0.1-0.1,0.3-0.2,0.4-0.1
                c0.3,0,0.5,0.3,0.6,0.4l0.1,0.1l1,0.5l0.1-0.4c0-0.1,0.1-0.2,0.1-0.2c0.2,0,0.5,0.1,0.6,0.3l0.1,0H18l0.1,0.1
                c0.2-0.2,0.3-0.1,0.5-0.1c0,0,0,0,0,0c0.2,0,0.5,0,0.5,0.1l0.1-0.1h1l0.1-0.1c0.1-0.2,0.3-0.3,0.4-0.3c0.3-0.1,0.6,0.2,0.7,0.3
                l0.1,0.2h1l0.1-0.2c0.1-0.2,0.3-0.4,0.5-0.4c0.3,0,0.6,0.3,0.7,0.4l0.1,0.3H25v-0.8c0-0.2,0-0.5,0.1-0.7l4.2-1.1l0.2,0.5l0.6,1.1
                h1.1l0.1-0.2c0.2-0.4,0.4-0.5,0.4-0.5c0.1,0,0.3,0.3,0.3,0.4l0.1,0.3h1.1l0.1-0.2c0.1-0.2,0.3-0.4,0.4-0.4c0.1,0,0.3,0.1,0.4,0.2
                l0.1,0.2l1-0.3l0.1-0.1c0.2-0.3,0.4-0.5,0.6-0.5c0.2,0,0.4,0.2,0.4,0.2l0.2,0.2l0.2-0.1c1.2-0.5,1.8-2.2,1.9-2.4
                c0.1-0.2,0.8-1.9,1.1-3.8c0.4-1.8,0.3-2.7,0.2-3.5l0-0.3c0-0.3,0-0.4,0-0.6c0-0.3,0-0.4-0.1-1.1c-1.5,1.9-3.4,3-5.7,3.4
                c-0.6,0.1-1.2,0.1-1.8,0.1c-2.6,0-5.2-0.9-7.1-1.7c-1.8-0.8-3.2-1.7-3.8-2.1c-2.5,2.9-4.8,3.3-7.4,3.8c-0.6,0.1-1.2,0.2-1.9,0.4
                c-1.1,0.3-1.9,0.8-2.3,1.6C9,65.7,9.7,67.7,10,68.4C10.3,69.5,11.9,70.6,11.9,70.6z"/>
            <path d="M34.1,61.2c2.3-0.4,4.1-1.6,5.6-3.6c-0.1-0.2-0.3-0.3-0.4-0.4c-0.6-0.3-1.3-0.1-1.4,0c0,0-1.5,0.6-3.6,1.3
                c-1.7,0.6-4.1-0.2-6.9-1c-0.5-0.2-1-0.3-1.5-0.5c-1.7-0.5-2.9-0.5-3.6,0c-0.3,0.2-0.4,0.4-0.4,0.6C23.3,58.6,29,62.1,34.1,61.2z"/>
        </g>
    </symbol>

    <symbol id="icon-airdry" viewBox="0 0 81.3 58.6">
        <g>
            <path d="M11,4.6c1.5,0.3,2.9,0.8,4.3,1.7c1.9,1.1,3.5,2.9,5.2,4.3c6.1,5,13,7.7,20.1,7.8c7,0.1,14-2.5,20.2-7.3
                c1.2-1,2.4-2.1,3.5-3.1c0.6-0.5,1.2-1,1.8-1.4c1.3-0.9,2.7-1.5,4.1-1.8c3.5-0.8,7.1,0,10.2,2.3c0.3-1.4,0.6-2.8,0.9-4.2
                c-3.2-2.2-6.9-3.1-10.4-2.6c-1.7,0.3-3.4,0.8-5,1.7c-2,1.1-3.1,2.3-4.9,3.8c-6.1,5.5-13.2,8.3-20.4,8.2c-7.2-0.1-14.2-3.1-20.3-8.7
                c-0.8-0.7-1.6-1.5-2.4-2.1c-0.8-0.6-1.5-1.1-2.3-1.5c-1.7-0.9-3.4-1.4-5.2-1.6C6.8-0.3,3.2,0.7,0,3.1C0.3,4.5,0.6,6,0.9,7.4
                C4,4.9,7.5,3.9,11,4.6z"/>
            <path d="M70.9,13.9c-1.7,0.3-3.4,0.8-5,1.7c-2,1.1-3.1,2.3-4.9,3.8c-6.1,5.5-13.2,8.3-20.4,8.2c-7.2-0.1-14.2-3.1-20.3-8.7
                c-0.8-0.7-1.6-1.5-2.4-2.1c-0.8-0.6-1.5-1.1-2.3-1.5c-1.7-0.9-3.4-1.4-5.2-1.6c-3.6-0.4-7.2,0.7-10.4,3c0.3,1.4,0.6,2.8,0.9,4.3
                C4,18.6,7.5,17.6,11,18.3c1.5,0.3,2.9,0.8,4.3,1.7c1.9,1.1,3.5,2.9,5.2,4.3c6.1,5,13,7.7,20.1,7.8c7,0.1,14-2.5,20.2-7.3
                c1.2-1,2.4-2.1,3.5-3.1c0.6-0.5,1.2-1,1.8-1.4c1.3-0.9,2.7-1.5,4.1-1.8c3.5-0.8,7.1,0,10.2,2.3c0.3-1.4,0.6-2.8,0.9-4.2
                C78.1,14.2,74.4,13.3,70.9,13.9z"/>
            <path d="M70.9,27.2c-1.7,0.3-3.4,0.8-5,1.7c-2,1.1-3.1,2.3-4.9,3.8c-6.1,5.5-13.2,8.3-20.4,8.2c-7.2-0.1-14.2-3.1-20.3-8.7
                c-0.8-0.7-1.6-1.5-2.4-2.1c-0.8-0.6-1.5-1.1-2.3-1.5c-1.7-0.9-3.4-1.4-5.2-1.6c-3.6-0.4-7.2,0.7-10.4,3c0.3,1.4,0.6,2.8,0.9,4.3
                C4,32,7.5,31,11,31.6c1.5,0.3,2.9,0.8,4.3,1.7c1.9,1.1,3.5,2.9,5.2,4.3c6.1,5,13,7.7,20.1,7.8c7,0.1,14-2.5,20.2-7.3
                c1.2-1,2.4-2.1,3.5-3.1c0.6-0.5,1.2-1,1.8-1.4c1.3-0.9,2.7-1.5,4.1-1.8c3.5-0.8,7.1,0,10.2,2.3c0.3-1.4,0.6-2.8,0.9-4.2
                C78.1,27.6,74.4,26.7,70.9,27.2z"/>
            <path d="M70.9,40.4c-1.7,0.3-3.4,0.8-5,1.7c-2,1.1-3.1,2.3-4.9,3.8c-6.1,5.5-13.2,8.3-20.4,8.2c-7.2-0.1-14.2-3.1-20.3-8.7
                c-0.8-0.7-1.6-1.5-2.4-2.1c-0.8-0.6-1.5-1.1-2.3-1.5c-1.7-0.9-3.4-1.4-5.2-1.6C6.8,40,3.2,41,0,43.4c0.3,1.4,0.6,2.8,0.9,4.3
                C4,45.2,7.5,44.2,11,44.8c1.5,0.3,2.9,0.8,4.3,1.7c1.9,1.1,3.5,2.9,5.2,4.3c6.1,5,13,7.7,20.1,7.8c7,0.1,14-2.5,20.2-7.3
                c1.2-1,2.4-2.1,3.5-3.1c0.6-0.5,1.2-1,1.8-1.4c1.3-0.9,2.7-1.5,4.1-1.8c3.5-0.8,7.1,0,10.2,2.3c0.3-1.4,0.6-2.8,0.9-4.2
                C78.1,40.8,74.4,39.9,70.9,40.4z"/>
        </g>
    </symbol>

    <symbol id="icon-factory" viewBox="0 0 98 101">
        <path d="M90.5,63.1V0H82v63.1H58V42.8L41.7,63.1h-0.7V42.8L24.8,63.1h-0.7V42.8L7.8,63.1H0V101h98V63.1H90.5z M16,92.8H7.6v-8.5H16
            V92.8z M16,79.8H7.6v-8.5H16V79.8z M30.9,92.8h-8.5v-8.5h8.5V92.8z M30.9,79.8h-8.5v-8.5h8.5V79.8z M45.8,92.8h-8.5v-8.5h8.5V92.8z
             M45.8,79.8h-8.5v-8.5h8.5V79.8z M60.7,92.8h-8.5v-8.5h8.5V92.8z M60.7,79.8h-8.5v-8.5h8.5V79.8z M75.6,92.8h-8.5v-8.5h8.5V92.8z
             M75.6,79.8h-8.5v-8.5h8.5V79.8z M90.5,92.8H82v-8.5h8.5V92.8z M90.5,79.8H82v-8.5h8.5V79.8z"/>
    </symbol>

    <symbol id="icon-play" viewBox="0 0 96.64 109.13">
        <path d="M92.66,47.66L12,1.07A8,8,0,0,0,0,8v93.19a8,8,0,0,0,12,6.9l80.7-46.59A8,8,0,0,0,92.66,47.66Z"/>
    </symbol>
</svg>