<?xml version="1.0" encoding="utf-8"?>
<!-- Generator: Adobe Illustrator 19.1.0, SVG Export Plug-In . SVG Version: 6.00 Build 0)  -->
<svg version="1.1" id="Layer_1" xmlns="http://www.w3.org/2000/svg" xmlns:xlink="http://www.w3.org/1999/xlink" x="0px" y="0px"
	 viewBox="0 0 803.3 47" enable-background="new 0 0 803.3 47" xml:space="preserve">
<g>
	<path fill="#FFFFFF" d="M138.4,0c15.4,0,30.8,0,46.1,0c1.7,0.2,3.4,0.5,5,0.6c26.3,1.1,52.6,1.8,78.9,3.3
		c24.3,1.4,48.5,3.5,72.8,5.6c22.8,1.9,45.6,4,68.4,6.3c29.7,2.9,59.4,6.1,89.1,9c31.9,3.1,63.7,6.1,95.6,8.8c36.3,3,72.6,6,109,8.2
		c33.2,2,66.5,3,99.8,4.5c-0.1,0.3-0.3,0.8-0.4,0.8c-1.1,0.1-2.3,0-3.4,0C533,47,266.5,47,0,47c0-11.4,0-22.8,0-34.2
		c6-0.9,12-1.9,18.1-2.7c36-5.1,72.2-8.2,108.5-9.3C130.6,0.7,134.5,0.3,138.4,0z"/>
</g>
</svg>
