<?xml version="1.0" encoding="utf-8"?>
<!-- Generator: Adobe Illustrator 19.1.0, SVG Export Plug-In . SVG Version: 6.00 Build 0)  -->
<svg version="1.1" id="Layer_1" xmlns="http://www.w3.org/2000/svg" xmlns:xlink="http://www.w3.org/1999/xlink" x="0px" y="0px"
	 width="650px" height="56px" viewBox="-95 270.3 650 56" style="enable-background:new -95 270.3 650 56;" xml:space="preserve">
<style type="text/css">
	.st0{fill:#EA5B0C;}
</style>
<path class="st0" d="M-95,268.4c0,1,0,0.9,0,1.1c4.9,3.5,9.7,7.4,14.8,10.6c16.6,10.2,34.8,17.1,53.3,22.9
	c22.1,7,44.7,11.9,67.6,15.6c33,5.3,66.2,6.6,99.5,5.4c16.2-0.5,32.4-1.6,48.6-2.8c17-1.3,33.9-3.1,50.9-4.7
	c17.7-1.7,35.4-3.6,53.1-5.2c14.4-1.4,28.8-2.7,43.2-3.8c18.9-1.4,37.8-2.6,56.7-3.7c28.5-1.7,57.1-2,85.6-1.4
	c15.6,0.3,31.2,1.1,46.8,1.9c9.6,0.5,19.4,1.5,28.9,2.3c0.3,0,0,0.1,1,0.2c0-23,0-15.5,0-38.5C338,268.4,121.5,268.4-95,268.4z"/>
</svg>
