<?xml version="1.0" encoding="utf-8"?>
<!-- Generator: Adobe Illustrator 19.1.0, SVG Export Plug-In . SVG Version: 6.00 Build 0)  -->
<svg version="1.1" id="Layer_1" xmlns="http://www.w3.org/2000/svg" xmlns:xlink="http://www.w3.org/1999/xlink" x="0px" y="0px"
	 width="817.6px" height="58px" viewBox="-11 269.3 817.6 58" style="enable-background:new -11 269.3 817.6 58;"
	 xml:space="preserve">
<style type="text/css">
	.st0{fill:#EA5B0C;}
</style>
<g>
	<path class="st0" d="M806.6,270.3c0,26.7,0,31.3,0,58c-272.6,0-545.1,0-817.6,0c0-26.7,0-31.3,0-58c1.1,0.4,2.2,0.8,3.3,1.2
		c57.3,17.5,115.8,29.3,175.1,37c35,4.6,70.1,8.2,105.3,10.6c36.7,2.5,73.5,3.5,110.3,4.4c23.3,0.5,46.7-0.1,70-0.8
		c21.4-0.6,42.9-1.3,64.2-2.9c29.1-2.3,58.3-5,87.3-8.5c26.4-3.2,52.7-7.2,78.9-11.7C725.1,292.5,766.1,282.6,806.6,270.3z"/>
</g>
</svg>
